<!-- public/logo-fluxframe-lockup.svg -->
<svg width="360" height="64" viewBox="0 0 360 64" xmlns="http://www.w3.org/2000/svg" role="img" aria-label="FluxFrame">
  <defs>
    <linearGradient id="g" x1="0" y1="0" x2="1" y2="1">
      <stop offset="0" stop-color="#a78bfa"/>
      <stop offset="1" stop-color="#6366f1"/>
    </linearGradient>
  </defs>
  <!-- Icon -->
  <g transform="translate(0,0)">
    <rect x="0" y="0" width="64" height="64" rx="14" fill="#0b0f19"/>
    <path d="M18 14h32c7 0 12 5 12 12s-5 12-12 12H26v-10h22c1 0 2-1 2-2s-1-2-2-2H18V14z" fill="url(#g)"/>
    <path d="M18 32h34c11 0 20 9 20 20s-9 20-20 20H18V62h34c6 0 10-4 10-10s-4-10-10-10H26V32z" fill="url(#g)"/>
  </g>
  <!-- Wordmark -->
  <g transform="translate(84,12)">
    <text x="0" y="33"
      font-family="system-ui, -apple-system, Segoe UI, Roboto, Arial, sans-serif"
      font-size="30" font-weight="800" fill="url(#g)">FluxFrame</text>
    <text x="2" y="52"
      font-family="system-ui, -apple-system, Segoe UI, Roboto, Arial, sans-serif"
      font-size="12" fill="#c7c9d1" opacity=".85">Cinematic remixes in one tap</text>
  </g>
</svg>
